<svg width="378" height="446" viewBox="0 0 378 446" fill="none" xmlns="http://www.w3.org/2000/svg">
<g clip-path="url(#clip0_49_316)">
<path d="M376.13 98.99V95.14H289.01L292.57 90.61H376.13V86.64H295.7L299.14 82.25H376.02V78.11H302.41L305.93 73.62H376.02V69.73L3.44 69.76V98.99H376.13Z" fill="white"/>
<path d="M375.96 12.4V0.04H375.95L375.97 0H3.60001V12.36L375.96 12.4Z" fill="white"/>
<path d="M376.02 178.82V175.23H213.09L217.35 170.64H375.91V167.05H220.69L225.06 162.35H375.91V158.76H228.4L233.09 153.72H376.02V150.13H236.43L240.9 145.31H375.91V141.72L3.60001 141.7V178.77L376.02 178.82Z" fill="white"/>
<path d="M377.04 287.01V283.39H3.60001V345.19L376.37 345.2V341.58H58.43L63.99 335.61H376.37V331.99H67.35L72.96 325.96H376.37V322.34H76.32L81.92 316.32H376.37V312.7H85.29L90.89 306.67H376.37V303.05H94.26L99.99 296.88H376.51V293.26H103.36L109.17 287.01H377.04Z" fill="white"/>
<path d="M375.99 261.98V258.35H135.81L140.96 252.82H375.99V249.19H144.33L149.48 243.65H375.99V240.03H152.85L157.99 234.49H375.99V230.86H161.37L166.51 225.33H375.99V221.7H169.89L175.03 216.17H375.99V212.54H3.60001V261.98H375.99Z" fill="white"/>
<path d="M24.08 445.15C19.45 445.15 15.36 444.32 11.82 442.66C8.28 441 5.5 438.63 3.5 435.54C1.5 432.45 0.5 428.74 0.5 424.39V421.99H11.65V424.39C11.65 427.99 12.76 430.69 14.99 432.49C17.22 434.29 20.25 435.19 24.08 435.19C27.91 435.19 30.87 434.42 32.78 432.88C34.69 431.34 35.65 429.36 35.65 426.96C35.65 425.3 35.18 423.96 34.24 422.93C33.3 421.9 31.93 421.06 30.12 420.4C28.32 419.74 26.13 419.13 23.56 418.56L21.59 418.13C17.47 417.22 13.94 416.06 11 414.66C8.06 413.26 5.8 411.42 4.23 409.13C2.66 406.84 1.87 403.87 1.87 400.21C1.87 396.55 2.74 393.42 4.48 390.82C6.22 388.22 8.68 386.22 11.85 384.82C15.02 383.42 18.75 382.72 23.04 382.72C27.33 382.72 31.14 383.45 34.49 384.91C37.83 386.37 40.46 388.54 42.38 391.43C44.29 394.32 45.25 397.93 45.25 402.28V404.85H34.1V402.28C34.1 399.99 33.66 398.15 32.77 396.75C31.88 395.35 30.61 394.32 28.95 393.66C27.29 393 25.32 392.67 23.03 392.67C19.6 392.67 17.07 393.31 15.44 394.6C13.81 395.89 13 397.64 13 399.87C13 401.36 13.39 402.61 14.16 403.64C14.93 404.67 16.09 405.53 17.63 406.21C19.17 406.9 21.15 407.5 23.55 408.01L25.52 408.44C29.81 409.36 33.54 410.53 36.71 411.96C39.88 413.39 42.35 415.28 44.13 417.62C45.9 419.96 46.79 422.97 46.79 426.62C46.79 430.27 45.86 433.49 44 436.27C42.14 439.04 39.51 441.21 36.11 442.79C32.71 444.36 28.69 445.15 24.06 445.15H24.08Z" fill="white" stroke="#1D1D1B" stroke-miterlimit="10"/>
<path d="M57.43 443.95V383.93H68.75V408.71H91.04V383.93H102.36V443.95H91.04V419H68.75V443.95H57.43V443.95Z" fill="white" stroke="#1D1D1B" stroke-miterlimit="10"/>
<path d="M139.05 445.15C134.13 445.15 129.92 444.25 126.4 442.45C122.88 440.65 120.2 438.08 118.34 434.73C116.48 431.39 115.55 427.43 115.55 422.86V383.93H126.87V423.2C126.87 426.86 127.91 429.75 130 431.86C132.09 433.98 135.1 435.03 139.05 435.03C143 435.03 146.01 433.97 148.1 431.86C150.19 429.75 151.23 426.86 151.23 423.2V383.93H162.55V422.86C162.55 427.43 161.62 431.39 159.76 434.73C157.9 438.07 155.22 440.65 151.7 442.45C148.18 444.25 143.97 445.15 139.05 445.15Z" fill="white" stroke="#1D1D1B" stroke-miterlimit="10"/>
<path d="M189.64 443.95V394.22H172.15V383.93H218.45V394.22H200.96V443.95H189.64Z" fill="white" stroke="#1D1D1B" stroke-miterlimit="10"/>
<path d="M242.29 443.95V394.22H224.8V383.93H271.1V394.22H253.61V443.95H242.29V443.95Z" fill="white" stroke="#1D1D1B" stroke-miterlimit="10"/>
<path d="M281.04 443.95V383.93H319.62V394.22H292.35V408.54H317.21V418.83H292.35V433.66H320.13V443.95H281.03H281.04Z" fill="white" stroke="#1D1D1B" stroke-miterlimit="10"/>
<path d="M330.77 443.95V383.93H356.83C360.6 383.93 363.89 384.59 366.69 385.9C369.49 387.22 371.66 389.07 373.21 391.47C374.75 393.87 375.52 396.7 375.52 399.96V400.99C375.52 404.59 374.66 407.51 372.95 409.74C371.24 411.97 369.12 413.6 366.6 414.63V416.17C368.89 416.29 370.66 417.07 371.92 418.53C373.18 419.99 373.81 421.92 373.81 424.32V443.95H362.49V425.94C362.49 424.57 362.13 423.45 361.42 422.6C360.7 421.74 359.52 421.31 357.86 421.31H342.08V443.95H330.76H330.77ZM342.09 411.03H355.64C358.33 411.03 360.43 410.3 361.94 408.84C363.45 407.38 364.21 405.45 364.21 403.05V402.19C364.21 399.79 363.47 397.86 361.98 396.4C360.49 394.94 358.38 394.21 355.63 394.21H342.08V411.02L342.09 411.03Z" fill="white" stroke="#1D1D1B" stroke-miterlimit="10"/>
</g>
<defs>
<clipPath id="clip0_49_316">
<rect width="377.04" height="445.65" fill="white"/>
</clipPath>
</defs>
</svg>
